# xmcd CD database file
#
# Track frame offsets:
#	150
#	3239
#	27964
#	47043
#	73792
#	99046
#	124332
#	128807
#	148011
#	174053
#	194372
#	218240
#	246326
#	275095
#	301433
#	329338
#
# Disc length: 4464 seconds
#
# Revision: 1
# Processed by: cddbd v1.5.1PL0 Copyright (c) Steve Scherf et al.
# Submitted via: CDex 1.51
#
DISCID=e7116e10
DTITLE=ケツメイシ - ケツノポリス２
DYEAR=2002
DGENRE=Blues
TTITLE0=前出し
TTITLE1=手紙 過去〜
TTITLE2=ビルの谷間
TTITLE3=高値の花
TTITLE4=人は
TTITLE5=侍ジャポン
TTITLE6=中出し
TTITLE7=手紙 〜現在〜
TTITLE8=雲の上から
TTITLE9=ア・セッションプリーズ
TTITLE10=ケツメの作り方
TTITLE11=よる☆かぜ
TTITLE12=手紙 〜未来
TTITLE13=わすれもの
TTITLE14=トモダチ
TTITLE15=後出し
EXTD=YEAR: 2002
EXTT0=
EXTT1=
EXTT2=
EXTT3=
EXTT4=
EXTT5=
EXTT6=
EXTT7=
EXTT8=
EXTT9=
EXTT10=
EXTT11=
EXTT12=
EXTT13=
EXTT14=
EXTT15=
PLAYORDER=
